<svg width="44" height="44" viewBox="0 0 44 44" fill="none" xmlns="http://www.w3.org/2000/svg">
<path d="M22 0C9.86914 0 0 9.86914 0 22C0 34.1309 9.86914 44 22 44C34.1309 44 44 34.1309 44 22C44 9.86914 34.1309 0 22 0ZM22 41.4829C11.257 41.4829 2.51707 32.7428 2.51707 22C2.51707 11.2572 11.257 2.51707 22 2.51707C32.743 2.51707 41.4829 11.2572 41.4829 22C41.4829 32.7428 32.743 41.4829 22 41.4829Z" fill="white"/>
<path d="M27.0954 10.0615H24.1121C21.6704 10.0615 19.6839 12.048 19.6839 14.4897V17.8458H16.9047C16.2095 17.8458 15.6461 18.4092 15.6461 19.1044C15.6461 19.7995 16.2095 20.3629 16.9047 20.3629H19.6839V32.0159C19.6839 32.7111 20.2473 33.2745 20.9424 33.2745C21.6376 33.2745 22.201 32.7111 22.201 32.0159V20.3629H26.501C27.1961 20.3629 27.7595 19.7995 27.7595 19.1044C27.7595 18.4092 27.1961 17.8458 26.501 17.8458H22.201V14.4897C22.201 13.4359 23.0583 12.5786 24.1121 12.5786H27.0953C27.7904 12.5786 28.3538 12.0152 28.3538 11.3201C28.3538 10.6249 27.7904 10.0615 27.0954 10.0615Z" fill="white"/>
</svg>
