<svg width="44" height="45" viewBox="0 0 44 45" fill="none" xmlns="http://www.w3.org/2000/svg">
<path d="M13 0.331787C5.85547 0.331787 0 6.16871 0 13.2906V31.2336C0 38.3555 5.85547 44.1924 13 44.1924H31C38.1445 44.1924 44 38.3555 44 31.2336V13.2906C44 6.16871 38.1445 0.331787 31 0.331787H13ZM13 2.32545H31C37.0547 2.32545 42 7.2551 42 13.2906V31.2336C42 37.2691 37.0547 42.1987 31 42.1987H13C6.94531 42.1987 2 37.2691 2 31.2336V13.2906C2 7.2551 6.94531 2.32545 13 2.32545ZM34 8.30644C32.9004 8.30644 32 9.20398 32 10.3001C32 11.3962 32.9004 12.2938 34 12.2938C35.0996 12.2938 36 11.3962 36 10.3001C36 9.20398 35.0996 8.30644 34 8.30644ZM22 11.2969C15.9551 11.2969 11 16.2363 11 22.2621C11 28.2879 15.9551 33.2272 22 33.2272C28.0449 33.2272 33 28.2879 33 22.2621C33 16.2363 28.0449 11.2969 22 11.2969ZM22 13.2906C26.9551 13.2906 31 17.3227 31 22.2621C31 27.2015 26.9551 31.2336 22 31.2336C17.0449 31.2336 13 27.2015 13 22.2621C13 17.3227 17.0449 13.2906 22 13.2906Z" fill="white"/>
</svg>
