<svg width="133" height="142" viewBox="0 0 133 142" fill="none" xmlns="http://www.w3.org/2000/svg">
<path d="M104.239 90.2959H82.1687L44.6753 52.0941V90.2959H30.0781V25.7371H79.8285V41.745H56.0932L104.239 90.2959Z" fill="url(#paint0_linear_340_275)"/>
<path d="M80.6276 45.4333C84.1412 42.4689 86.3796 37.812 86.3796 32.5517C86.3796 23.5983 79.7409 16.312 71.5739 16.312H30.0781V0.300903H71.5818C87.7853 0.300903 100.975 14.7703 100.975 32.5517C100.975 40.8256 98.006 48.6692 93.0151 54.5471" fill="url(#paint1_linear_340_275)"/>
<path d="M104.239 90.2959H92.5375L30.0781 25.7371H79.8285V34.3269H48.9052L104.239 90.2959Z" fill="url(#paint2_linear_340_275)"/>
<path d="M10.6906 112.777C10.6906 115.368 8.74196 116.98 5.62639 116.98H3.28454V120.187H0.578125V108.557H5.62639C8.74196 108.557 10.6906 110.175 10.6906 112.777ZM7.95869 112.777C7.95869 111.497 7.12607 110.749 5.47674 110.749H3.28454V114.787H5.47674C7.12607 114.787 7.95869 114.039 7.95869 112.777Z" fill="white"/>
<path d="M21.5688 120.187L19.3209 116.947H16.8374V120.187H14.1389V108.557H19.1872C22.3027 108.557 24.2514 110.168 24.2514 112.777C24.2514 114.524 23.3694 115.794 21.8522 116.448L24.4679 120.187H21.5688ZM19.0455 110.749H16.8374V114.803H19.0455C20.6948 114.803 21.5274 114.039 21.5274 112.777C21.5274 111.515 20.6869 110.749 19.0455 110.749Z" fill="white"/>
<path d="M27.1838 114.371C27.1838 110.916 29.8823 108.357 33.5646 108.357C37.2469 108.357 39.9454 110.897 39.9454 114.371C39.9454 117.845 37.2294 120.387 33.5646 120.387C29.8998 120.387 27.1838 117.828 27.1838 114.371ZM37.2135 114.371C37.2135 112.163 35.647 110.649 33.5646 110.649C31.4823 110.649 29.9157 112.163 29.9157 114.371C29.9157 116.58 31.4823 118.093 33.5646 118.093C35.647 118.093 37.2135 116.581 37.2135 114.371Z" fill="white"/>
<path d="M43.51 108.557H48.8162C52.637 108.557 55.2463 110.85 55.2463 114.371C55.2463 117.893 52.6227 120.187 48.8162 120.187H43.51V108.557ZM48.6745 117.977C50.9909 117.977 52.5065 116.599 52.5065 114.371C52.5065 112.144 50.9909 110.767 48.6745 110.767H46.2101V117.977H48.6745Z" fill="white"/>
<path d="M58.7041 115.07V108.56H61.4026V114.97C61.4026 117.18 62.3689 118.093 64.0023 118.093C65.6357 118.093 66.6005 117.18 66.6005 114.97V108.557H69.2671V115.067C69.2671 118.49 67.301 120.384 63.9848 120.384C60.6686 120.384 58.7041 118.493 58.7041 115.07Z" fill="white"/>
<path d="M72.7312 114.371C72.7312 110.865 75.4297 108.357 79.0626 108.357C81.0781 108.357 82.7609 109.089 83.8609 110.421L82.1272 112.009C81.7711 111.579 81.323 111.234 80.8159 110.999C80.3088 110.764 79.7555 110.645 79.1964 110.651C77.0137 110.651 75.4631 112.18 75.4631 114.373C75.4631 116.565 77.0137 118.094 79.1964 118.094C79.7575 118.1 80.3127 117.979 80.8203 117.741C81.3279 117.502 81.7747 117.152 82.1272 116.716L83.8609 118.304C82.7609 119.649 81.0781 120.381 79.0451 120.381C75.4297 120.387 72.7312 117.877 72.7312 114.371Z" fill="white"/>
<path d="M89.508 110.749H85.7764V108.557H95.9398V110.749H92.2065V120.187H89.508V110.749Z" fill="white"/>
<path d="M98.9214 108.557H101.62V120.187H98.9214V108.557Z" fill="white"/>
<path d="M105.184 114.371C105.184 110.916 107.891 108.357 111.565 108.357C115.239 108.357 117.946 110.897 117.946 114.371C117.946 117.845 115.23 120.387 111.565 120.387C107.9 120.387 105.184 117.828 105.184 114.371ZM115.214 114.371C115.214 112.163 113.647 110.649 111.565 110.649C109.483 110.649 107.918 112.163 107.918 114.371C107.918 116.58 109.483 118.093 111.565 118.093C113.647 118.093 115.214 116.581 115.214 114.371Z" fill="white"/>
<path d="M132.207 108.557V120.187H129.991L124.177 113.126V120.187H121.512V108.557H123.741L129.539 115.618V108.557H132.207Z" fill="white"/>
<path d="M38.3453 141.078C37.7916 140.922 37.2739 140.659 36.8218 140.304L37.3535 139.374C37.7698 139.687 38.2373 139.926 38.7354 140.08C39.2949 140.263 39.8802 140.356 40.4691 140.353C41.2683 140.353 41.8594 140.229 42.2426 139.98C42.4237 139.871 42.5724 139.716 42.6735 139.53C42.7745 139.345 42.8241 139.136 42.8173 138.924C42.824 138.783 42.7989 138.641 42.7438 138.511C42.6887 138.38 42.605 138.263 42.4989 138.169C42.2668 137.975 41.9952 137.833 41.7029 137.754C41.2809 137.638 40.8525 137.546 40.4197 137.48C39.8399 137.378 39.2668 137.242 38.7035 137.072C38.2759 136.939 37.8913 136.696 37.5891 136.367C37.2835 136.033 37.1322 135.573 37.1322 134.987C37.1287 134.636 37.2108 134.29 37.3714 133.979C37.532 133.667 37.7663 133.399 38.054 133.197C38.6653 132.732 39.5144 132.499 40.6012 132.499C41.1758 132.499 41.7478 132.574 42.3031 132.721C42.7986 132.84 43.2713 133.039 43.7024 133.31L43.185 134.263C42.423 133.752 41.5205 133.491 40.6028 133.515C39.8482 133.515 39.2793 133.648 38.8962 133.913C38.7185 134.024 38.5724 134.179 38.4717 134.362C38.3711 134.545 38.3194 134.751 38.3215 134.96C38.3148 135.107 38.3397 135.254 38.3946 135.391C38.4495 135.528 38.5331 135.652 38.6399 135.754C38.871 135.961 39.1474 136.111 39.447 136.194C39.8859 136.313 40.3307 136.41 40.7795 136.484C41.3475 136.585 41.9093 136.718 42.4623 136.883C42.877 137.012 43.2508 137.246 43.5464 137.564C43.8457 137.881 43.9954 138.324 43.9954 138.893C44.0044 139.252 43.9215 139.608 43.7543 139.926C43.5872 140.244 43.3414 140.515 43.0402 140.712C42.4034 141.161 41.5177 141.386 40.3831 141.386C39.692 141.388 39.0047 141.284 38.3453 141.078Z" fill="white"/>
<path d="M52.3312 140.77C52.0916 140.978 51.8106 141.134 51.5065 141.227C51.1757 141.333 50.8303 141.386 50.4828 141.386C49.6603 141.386 49.0272 141.164 48.5836 140.722C48.1399 140.28 47.9176 139.653 47.9165 138.844V133.558H46.3516V132.562H47.9165V130.657H49.0994V132.562H51.766V133.56H49.0994V138.777C49.0994 139.298 49.2299 139.694 49.491 139.965C49.7521 140.236 50.1273 140.372 50.6166 140.373C50.8571 140.373 51.096 140.333 51.3234 140.255C51.5408 140.184 51.742 140.072 51.9156 139.923L52.3312 140.77Z" fill="white"/>
<path d="M63.9099 132.562V141.295H62.778V139.707C62.4745 140.231 62.0301 140.66 61.4949 140.946C60.9199 141.246 60.2782 141.398 59.629 141.386C58.4838 141.386 57.5817 141.068 56.9226 140.433C56.2635 139.798 55.9334 138.865 55.9324 137.634V132.562H57.1152V137.515C57.1152 138.434 57.3429 139.132 57.7982 139.607C58.2535 140.082 58.9031 140.321 59.7468 140.322C60.6691 140.322 61.3967 140.042 61.9295 139.483C62.4623 138.924 62.7276 138.146 62.7255 137.149V132.562H63.9099Z" fill="white"/>
<path d="M76.7559 128.972V141.295H75.6224V139.572C75.2864 140.142 74.7994 140.608 74.215 140.919C73.6059 141.235 72.9275 141.395 72.241 141.384C71.4611 141.394 70.6924 141.199 70.0121 140.819C69.3527 140.449 68.8105 139.902 68.4472 139.241C68.0748 138.527 67.8804 137.735 67.8804 136.931C67.8804 136.127 68.0748 135.335 68.4472 134.622C68.8094 133.961 69.3521 133.417 70.0121 133.051C70.6942 132.676 71.4622 132.484 72.241 132.494C72.9083 132.484 73.5681 132.636 74.1641 132.935C74.7398 133.233 75.226 133.677 75.573 134.223V128.972H76.7559ZM73.9985 139.914C74.4932 139.63 74.8972 139.212 75.1639 138.709C75.4434 138.158 75.589 137.549 75.589 136.931C75.589 136.314 75.4434 135.705 75.1639 135.154C74.8972 134.65 74.4932 134.232 73.9985 133.948C73.4875 133.67 72.9147 133.524 72.3325 133.524C71.7503 133.524 71.1774 133.67 70.6665 133.948C70.1709 134.232 69.7662 134.65 69.4995 135.154C69.22 135.705 69.0744 136.314 69.0744 136.931C69.0744 137.549 69.22 138.158 69.4995 138.709C69.7662 139.212 70.1709 139.63 70.6665 139.914C71.1774 140.192 71.7503 140.338 72.3325 140.338C72.9147 140.338 73.4875 140.192 73.9985 139.914Z" fill="white"/>
<path d="M81.5699 130.401C81.4893 130.324 81.4256 130.231 81.3826 130.128C81.3396 130.025 81.3183 129.914 81.3199 129.803C81.3194 129.694 81.3414 129.586 81.3844 129.486C81.4274 129.386 81.4905 129.296 81.5699 129.222C81.6498 129.14 81.7458 129.076 81.8518 129.033C81.9578 128.99 82.0716 128.969 82.186 128.972C82.2996 128.97 82.4126 128.99 82.5184 129.031C82.6242 129.072 82.7207 129.135 82.8021 129.214C82.8817 129.286 82.9452 129.375 82.9883 129.474C83.0313 129.572 83.053 129.679 83.052 129.787C83.0512 129.958 82.9999 130.125 82.9044 130.267C82.809 130.408 82.6737 130.519 82.5155 130.585C82.3572 130.65 82.1831 130.668 82.0149 130.635C81.8467 130.603 81.6919 130.521 81.5699 130.401ZM81.5858 132.561H82.7686V141.293H81.5858V132.561Z" fill="white"/>
<path d="M88.8997 140.819C88.2341 140.444 87.6837 139.895 87.3077 139.231C86.9243 138.527 86.7234 137.739 86.7234 136.937C86.7234 136.136 86.9243 135.348 87.3077 134.644C87.6829 133.982 88.2337 133.436 88.8997 133.066C89.6031 132.694 90.3869 132.5 91.1827 132.5C91.9785 132.5 92.7622 132.694 93.4656 133.066C94.1333 133.434 94.6846 133.98 95.0576 134.644C95.4349 135.35 95.6322 136.137 95.6322 136.937C95.6322 137.737 95.4349 138.525 95.0576 139.231C94.6838 139.896 94.1329 140.446 93.4656 140.819C92.7638 141.195 91.9794 141.392 91.1827 141.392C90.3859 141.392 89.6015 141.195 88.8997 140.819ZM92.8575 139.922C93.351 139.639 93.7527 139.22 94.0148 138.717C94.2892 138.164 94.4319 137.556 94.4319 136.939C94.4319 136.322 94.2892 135.714 94.0148 135.162C93.7527 134.658 93.351 134.239 92.8575 133.956C92.3441 133.679 91.7696 133.534 91.1858 133.534C90.6021 133.534 90.0276 133.679 89.5142 133.956C89.0196 134.24 88.6155 134.658 88.3489 135.162C88.0694 135.713 87.9237 136.321 87.9237 136.939C87.9237 137.557 88.0694 138.165 88.3489 138.717C88.6155 139.22 89.0196 139.638 89.5142 139.922C90.0276 140.199 90.6021 140.344 91.1858 140.344C91.7696 140.344 92.3441 140.199 92.8575 139.922Z" fill="white"/>
<defs>
<linearGradient id="paint0_linear_340_275" x1="33.4516" y1="91.6343" x2="149.859" y2="-25.0835" gradientUnits="userSpaceOnUse">
<stop stop-color="#1D1464"/>
<stop offset="1" stop-color="#93268B"/>
</linearGradient>
<linearGradient id="paint1_linear_340_275" x1="18.8608" y1="72.3651" x2="84.4325" y2="2.96528" gradientUnits="userSpaceOnUse">
<stop stop-color="#1D1464"/>
<stop offset="0.51" stop-color="#93268B"/>
<stop offset="1" stop-color="#652C8B"/>
</linearGradient>
<linearGradient id="paint2_linear_340_275" x1="42.5929" y1="13.6509" x2="106.183" y2="78.7159" gradientUnits="userSpaceOnUse">
<stop stop-color="#1D1464"/>
<stop offset="0.51" stop-color="#93268B"/>
<stop offset="1" stop-color="#652C8B"/>
</linearGradient>
</defs>
</svg>
