<svg xmlns="http://www.w3.org/2000/svg" aria-hidden="true" style="position:absolute;width:0;height:0;overflow:hidden"><defs><symbol id="icon-arrow" viewBox="0 0 56 32"><path fill="#fff" d="M55.63 15.103 42.903 2.376a1.273 1.273 0 1 0-1.795 1.794l10.551 10.563H1.273a1.273 1.273 0 0 0 0 2.546h50.386L41.108 27.83a1.272 1.272 0 1 0 1.795 1.794L55.63 16.897a1.273 1.273 0 0 0 0-1.794z" style="fill:var(--color1, #fff)"/></symbol><symbol id="icon-assembling" viewBox="0 0 39 32"><path d="M34.281.211H4.456A4.39 4.39 0 0 0 .07 4.597V25.65a4.39 4.39 0 0 0 4.386 4.386h9.649a.879.879 0 0 0 .615-1.494.879.879 0 0 0-.615-.26v-4.386h.877a.887.887 0 0 0 .625-.254.878.878 0 0 0-.625-1.502H1.824V8.105h35.088v6.14a.879.879 0 0 0 1.494.615.879.879 0 0 0 .26-.615V4.596A4.39 4.39 0 0 0 34.28.21zm-21.93 23.684v4.386H7.965v-4.386h4.386zm-6.141 0v4.386H4.456a2.632 2.632 0 0 1-2.632-2.632v-1.754H6.21zM1.824 6.351V4.597a2.632 2.632 0 0 1 2.632-2.632H6.21v4.386H1.824zm6.141 0V1.965h4.386v4.386H7.965zm6.14 0V1.965h4.386v4.386h-4.386zm6.141 0V1.965h4.386v4.386h-4.386zm6.14 0V1.965h4.386v4.386h-4.386zm6.14 0V1.965h1.754a2.632 2.632 0 0 1 2.632 2.632v1.754h-4.386z"/><path d="M38.549 18.137a.881.881 0 0 0-1.199-.321l-8.084 4.667-4.401-2.541a3.696 3.696 0 0 0-2.108-4.423 3.692 3.692 0 1 0 1.236 5.946l3.52 2.032-3.524 2.035a3.707 3.707 0 0 0-4.9-.405 3.707 3.707 0 0 0-.987 4.817 3.7 3.7 0 0 0 4.666 1.553 3.704 3.704 0 0 0 2.1-4.447l4.401-2.541 8.084 4.667a.872.872 0 0 0 .666.088.88.88 0 0 0 .643-.732.878.878 0 0 0-.43-.875l-7.207-4.161 7.207-4.161a.876.876 0 0 0 .321-1.198zm-16.725 2.654a1.951 1.951 0 1 1-1.01-3.769 1.951 1.951 0 0 1 1.01 3.769zm.47 8.982a1.95 1.95 0 1 1-1.952-3.382 1.95 1.95 0 0 1 1.953 3.384z"/></symbol><symbol id="icon-coloristics" viewBox="0 0 32 32"><path d="M8.134 22.97a.625.625 0 1 0 .885.884.625.625 0 0 0-.885-.884zM20.646 31.997a.625.625 0 0 0 0-1.25h-2.5a.625.625 0 0 0 0 1.25h2.5z"/><path d="M25.598 1.096 4.157 22.528l-.001.001a.655.655 0 0 0-.122.174l-3.973 8.4a.626.626 0 0 0 .565.893h15.021a.625.625 0 0 0 0-1.25H3.399l5.887-2.793a.636.636 0 0 0 .173-.122l.001-.001L30.901 6.399a3.75 3.75 0 1 0-5.304-5.304zm.441 8.397-3.536-3.536 1.326-1.326 3.536 3.536-1.326 1.326zM5.551 28.342l-1.902-1.903 1.135-2.4 3.166 3.165-2.398 1.138zm3.467-1.836-3.536-3.535 16.137-16.13 1.326 1.326L9.902 21.202a.625.625 0 0 0 .884.884L23.83 9.051l1.325 1.325L9.019 26.505zM3.082 27.64l1.271 1.271-2.414 1.145 1.143-2.416zM30.018 5.516 28.25 7.283l-3.536-3.536 1.768-1.767a2.5 2.5 0 1 1 3.536 3.536z"/></symbol><symbol id="icon-effects" viewBox="0 0 34 32"><path d="M25.165 31.051H14.288L9.75 25.47v-6.277h.659a.398.398 0 0 0 .395-.395v-6.983h4.875c2.835 0 5.138-2.303 5.138-5.138s-2.303-5.138-5.138-5.138H5.139C2.304 1.539.001 3.842.001 6.677s2.303 5.138 5.138 5.138h2.767v6.983c0 .216.179.395.395.395h.659v6.277l-4.538 5.581H1.977c-.216 0-.395.179-.395.395s.179.395.395.395h23.188c.216 0 .395-.179.395-.395s-.179-.395-.395-.395zm-5.16-24.769h-3.373L19.014 3.9a4.28 4.28 0 0 1 .991 2.382zm-.991 3.173-2.382-2.382h3.373a4.273 4.273 0 0 1-.991 2.382zm-2.94-1.824 2.382 2.382a4.36 4.36 0 0 1-2.382.991V7.631zm0-1.908V2.35a4.309 4.309 0 0 1 2.382.991l-2.382 2.382zm-.791 0-2.382-2.382a4.36 4.36 0 0 1 2.382-.991v3.373zM12.337 3.9l2.382 2.382h-3.373a4.353 4.353 0 0 1 .991-2.382zm2.388 3.172-2.382 2.382a4.36 4.36 0 0 1-.991-2.382h3.373zm.558.559v3.373a4.309 4.309 0 0 1-2.382-.991l2.382-2.382zM.79 6.677a4.352 4.352 0 0 1 4.348-4.348h7.816c-1.444.912-2.414 2.514-2.414 4.348s.964 3.436 2.414 4.348H5.138A4.352 4.352 0 0 1 .79 6.677zm7.906 5.139h1.318v6.588H8.697v-6.588zm4.569 19.235H9.75v-4.327l3.515 4.327zm-4.306-4.326v4.327H5.444l3.515-4.327zM30.962 31.051h-3.689c-.216 0-.395.179-.395.395s.179.395.395.395h3.689c.216 0 .395-.179.395-.395s-.179-.395-.395-.395z"/><path d="M3.557 5.096a.398.398 0 0 0-.395.395v2.372c0 .216.179.395.395.395s.395-.179.395-.395V5.491a.398.398 0 0 0-.395-.395zM5.665 5.096a.398.398 0 0 0-.395.395v2.372c0 .216.179.395.395.395s.395-.179.395-.395V5.491a.398.398 0 0 0-.395-.395zM7.773 5.096a.398.398 0 0 0-.395.395v2.372c0 .216.179.395.395.395s.395-.179.395-.395V5.491a.398.398 0 0 0-.395-.395zM22.503 7.599h3.473a3.8 3.8 0 0 0 0-7.6c-.216 0-.395.179-.395.395s.179.395.395.395c1.66 0 3.009 1.349 3.009 3.009s-1.349 3.009-3.009 3.009h-3.473a.395.395 0 1 0 0 .79z"/><path d="M22.556 5.491h3.42c.933 0 1.692-.759 1.692-1.692s-.759-1.692-1.692-1.692c-.216 0-.395.179-.395.395s.179.395.395.395c.495 0 .901.406.901.901s-.406.901-.901.901h-3.42c-.216 0-.395.179-.395.395s.179.395.395.395zM29.665 6.809c-.216 0-.395.179-.395.395s.179.395.395.395c1.66 0 3.009 1.349 3.009 3.009s-1.349 3.009-3.009 3.009c-.216 0-.395.179-.395.395s.179.395.395.395a3.8 3.8 0 0 0 0-7.6z"/><path d="M29.665 11.51c-.216 0-.395.179-.395.395s.179.395.395.395c.933 0 1.692-.759 1.692-1.692s-.759-1.692-1.692-1.692h-7.109c-.216 0-.395.179-.395.395s.179.395.395.395h7.109c.495 0 .901.406.901.901s-.406.901-.901.901z"/></symbol><symbol id="icon-facebook" viewBox="0 0 32 32"><path fill="#d9d9d9" d="M16 0C7.178 0 0 7.178 0 16s7.178 16 16 16 16-7.178 16-16S24.822 0 16 0zm0 30.169C8.187 30.169 1.831 23.813 1.831 16S8.187 1.831 16 1.831c7.813 0 14.169 6.356 14.169 14.169S23.813 30.169 16 30.169z" style="fill:var(--color2, #d9d9d9)"/><path fill="#d9d9d9" d="M19.706 7.317h-2.17a3.225 3.225 0 0 0-3.221 3.221v2.441h-2.021a.915.915 0 0 0 0 1.83h2.021v8.475a.915.915 0 1 0 1.83 0v-8.475h3.127a.915.915 0 1 0 0-1.83h-3.127v-2.441c0-.766.623-1.39 1.39-1.39h2.17a.915.915 0 1 0 0-1.83z" style="fill:var(--color2, #d9d9d9)"/></symbol><symbol id="icon-filming" viewBox="0 0 40 32"><path d="M38.643 11.884h-3.099a1.766 1.766 0 0 0-1.766 1.766v.424l-1.895 1.354h-2.508v-2.813a2.914 2.914 0 0 0-2.909-2.91H24.65c-2.142-4.145-1.962-3.815-2.076-3.976h1.421a1.417 1.417 0 0 0 1.4 1.2h11.412a3.184 3.184 0 1 0 0-6.366H25.395a1.418 1.418 0 0 0-1.4 1.2h-7.546a1.08 1.08 0 0 0-1.075 1.079v2.054H3.849a1.426 1.426 0 0 0-1.425 1.421v.392a1.429 1.429 0 0 0 1.425 1.425h14.058l.27 1.572h-4.874a2.93 2.93 0 0 0-2.054.853l-5.13 5.128-.84-.84a.973.973 0 0 0-1.344 0L.49 18.294a.957.957 0 0 0-.278.672.941.941 0 0 0 .278.672l.84.84-.469.467a2.928 2.928 0 0 0-.853 2.057v5.528a2.912 2.912 0 0 0 2.908 2.91h23.55a2.91 2.91 0 0 0 2.909-2.91v-2.813h2.508l1.895 1.354v.419a1.774 1.774 0 0 0 1.77 1.77h3.094a1.102 1.102 0 0 0 1.099-1.1v-1.492a1.101 1.101 0 0 0-.564-.959l-.727-.405.724-.402a1.108 1.108 0 0 0 .566-.962v-2a1.101 1.101 0 0 0-.564-.959l-.727-.405.724-.402a1.108 1.108 0 0 0 .566-.962v-2a1.105 1.105 0 0 0-.564-.962l-.727-.405.725-.402a1.093 1.093 0 0 0 .566-.962v-1.498a1.098 1.098 0 0 0-1.099-1.099zm-13.831-9.91a.585.585 0 0 1 .583-.579h11.412a2.347 2.347 0 0 1 2.35 2.35 2.347 2.347 0 0 1-2.35 2.35H25.395a.585.585 0 0 1-.583-.579V1.974zm-.833 2.921h-2.838v-2.3h2.838v2.3zm-3.671-2.3v2.3h-1.217v-2.3h1.217zm-4.1.246a.253.253 0 0 1 .07-.174.241.241 0 0 1 .172-.073h1.808v2.3h-2.05V2.84zM3.85 7.299a.595.595 0 0 1-.592-.592v-.392a.59.59 0 0 1 .591-.587h13.642l.271 1.571H3.849zm14.491-1.571h2.638a1.1 1.1 0 0 1 .987.6l1.746 3.375h-4.688c-.615-3.565-.077-.457-.683-3.975zm-8.049 6.964h15.265V14.4H8.583l1.708-1.708zM1.08 19.045a.117.117 0 0 1 0-.166c3.674-3.674 3.454-3.48 3.528-3.48.067 0 .013-.036.923.875L1.92 19.886l-.84-.84zm27.462 9.483a2.08 2.08 0 0 1-2.077 2.077H2.916a2.083 2.083 0 0 1-2.077-2.077V23c.002-.55.221-1.077.609-1.467l6.3-6.298h18.225c.11 0 .216-.044.295-.122s.122-.184.122-.295v-2.542c0-.11-.044-.216-.122-.295s-.184-.122-.295-.122h-14.85l.712-.712c.39-.389.917-.608 1.467-.61h13.162a2.08 2.08 0 0 1 2.075 2.076v15.915zm.833-12.268H31.6v8.622h-2.225V16.26zm4.402 9.784-1.344-.961v-9.025l1.344-.958v10.945zm5.132-11.563a.266.266 0 0 1-.137.233l-.841.467a.756.756 0 0 0-.39.664.758.758 0 0 0 .39.664l.843.47a.269.269 0 0 1 .137.233v2a.266.266 0 0 1-.137.233l-.841.466a.756.756 0 0 0-.39.664.758.758 0 0 0 .39.664l.843.47a.269.269 0 0 1 .137.233v2a.266.266 0 0 1-.137.233l-.841.466a.756.756 0 0 0-.39.664.758.758 0 0 0 .39.664l.843.47a.269.269 0 0 1 .137.233v1.493a.265.265 0 0 1-.266.266h-3.098a.935.935 0 0 1-.937-.937V13.651a.936.936 0 0 1 .932-.932h3.099a.265.265 0 0 1 .266.266v1.498z"/><path d="M25.417 21.357H7.867a.972.972 0 0 0-.972.972v5.296a.972.972 0 0 0 .972.972h17.55a.972.972 0 0 0 .972-.972v-5.296a.972.972 0 0 0-.972-.972zM7.728 27.625v-5.296c0-.037.015-.072.041-.098s.061-.041.098-.041h5.678c-.021.146-.024 5.408 0 5.574H7.867c-.037 0-.072-.015-.098-.041s-.041-.061-.041-.098zm17.828 0c0 .037-.015.072-.041.098s-.061.041-.098.041H14.5c-.037 0-.072-.015-.098-.041s-.041-.061-.041-.098v-5.296c0-.037.015-.072.041-.098s.061-.041.098-.041h10.917c.037 0 .072.015.098.041s.041.061.041.098v5.296zM20.362 8.203a.417.417 0 1 0 .775-.309l-.233-.588a.419.419 0 0 0-.541-.233.417.417 0 0 0-.233.542l.233.587z"/><path d="M11.479 23.089H9.592a.419.419 0 0 0-.417.417.419.419 0 0 0 .417.417h1.887a.419.419 0 0 0 .417-.417c0-.11-.044-.216-.122-.295s-.184-.122-.295-.122zM11.479 24.561H9.592a.419.419 0 0 0-.417.417c0 .11.044.216.122.295s.184.122.295.122h1.887a.419.419 0 0 0 .417-.417c0-.11-.044-.216-.122-.295s-.184-.122-.295-.122zM11.479 26.033H9.592a.419.419 0 0 0-.417.417c0 .11.044.216.122.295s.184.122.295.122h1.887a.419.419 0 0 0 .417-.417c0-.11-.044-.216-.122-.295s-.184-.122-.295-.122zM24.723 16.816a1.667 1.667 0 1 0 .002 3.334 1.667 1.667 0 0 0-.003-3.334zm0 2.5a.837.837 0 0 1-.77-.514c-.063-.152-.08-.32-.047-.481s.112-.31.228-.427.265-.196.427-.228a.837.837 0 0 1 .856.354.829.829 0 0 1-.105 1.051.835.835 0 0 1-.589.244v.002zM19.56 20.148a1.667 1.667 0 1 0 0-3.336 1.667 1.667 0 0 0 0 3.337zm0-2.5a.837.837 0 0 1 .77.514c.063.152.08.32.047.482s-.112.31-.228.427-.265.196-.427.228a.833.833 0 1 1-.161-1.648v-.002zM14.397 20.148a1.667 1.667 0 1 0 0-3.336 1.667 1.667 0 0 0 0 3.337zm0-2.5a.837.837 0 0 1 .77.514c.063.152.08.32.047.482s-.112.31-.228.427-.265.196-.427.228a.833.833 0 1 1-.161-1.648v-.002z"/></symbol><symbol id="icon-idea" viewBox="0 0 29 32"><path d="M14.146 4.719c-4.768 0-8.664 3.936-8.664 8.755 0 2.519 1.091 4.944 2.929 6.582 1.371 1.386 1.246 4.346 1.215 4.377 0 .157.031.283.156.409a.572.572 0 0 0 .374.157h7.947c.156 0 .28-.063.374-.157s.156-.252.156-.409c0-.032-.156-2.992 1.215-4.377l.093-.095c1.807-1.669 2.867-4.031 2.867-6.487 0-4.818-3.896-8.755-8.664-8.755zm4.986 14.518c-.031.031-.093.094-.093.126-1.215 1.323-1.434 3.496-1.465 4.535h-6.887c-.031-1.039-.249-3.307-1.558-4.661a7.71 7.71 0 0 1-2.618-5.795c0-4.251 3.397-7.684 7.604-7.684s7.604 3.433 7.604 7.684c0 2.236-.935 4.346-2.587 5.795z"/><path d="M14.115 6.955c-.28 0-.53.252-.53.535s.249.535.53.535c3.148 0 5.672 2.582 5.672 5.731 0 .283.249.535.53.535s.53-.252.53-.535c.031-3.748-2.992-6.802-6.731-6.802zM17.574 25.598h-6.918a1.324 1.324 0 0 0 0 2.646h6.887c.748-.031 1.34-.598 1.34-1.323s-.592-1.323-1.309-1.323zm0 1.543h-6.918c-.125 0-.249-.094-.249-.252s.093-.252.249-.252h6.887c.125 0 .249.094.249.252s-.093.252-.218.252zM16.546 28.779h-4.862a1.324 1.324 0 0 0 0 2.646h4.862c.717 0 1.309-.598 1.309-1.323 0-.756-.592-1.323-1.309-1.323zm0 1.543h-4.862c-.125 0-.249-.095-.249-.252s.093-.252.249-.252h4.862c.125 0 .249.095.249.252s-.125.252-.249.252zM14.115 2.105c.312 0 .53-.252.53-.535v-3.653c0-.283-.249-.535-.53-.535s-.53.252-.53.535V1.57c0 .283.249.535.53.535zM22.934.09c-.249-.189-.561-.094-.717.126l-1.994 3.023a.522.522 0 0 0 .125.756.5.5 0 0 0 .28.094.494.494 0 0 0 .436-.252L23.058.814a.49.49 0 0 0-.125-.724zM7.789 3.963a.5.5 0 0 0 .281-.094c.249-.157.312-.504.156-.756L6.294.058c-.156-.252-.499-.315-.748-.157s-.312.504-.156.756l1.932 3.055c.125.189.28.252.467.252zM4.018 7.301.87 5.569c-.249-.126-.592-.032-.717.22a.505.505 0 0 0 .218.724l3.148 1.732c.094.031.156.063.249.063a.513.513 0 0 0 .467-.283c.125-.252.031-.598-.218-.724zM28.108 5.79c-.125-.252-.467-.346-.717-.22l-3.179 1.732c-.249.126-.343.472-.218.724.093.189.28.283.467.283a.589.589 0 0 0 .249-.063l3.179-1.732c.249-.126.343-.472.218-.724z"/></symbol><symbol id="instagram" viewBox="0 0 32 32"><path fill="#d9d9d9" d="M9.309 0C4.193 0 0 4.193 0 9.309v12.889c0 5.116 4.193 9.309 9.309 9.309h12.889c5.116 0 9.309-4.193 9.309-9.309V9.309C31.507 4.193 27.314 0 22.198 0H9.309zm0 1.432h12.889c4.336 0 7.877 3.541 7.877 7.877v12.889c0 4.336-3.541 7.877-7.877 7.877H9.309c-4.336 0-7.877-3.541-7.877-7.877V9.309c0-4.336 3.541-7.877 7.877-7.877zm15.037 4.297c-.787 0-1.432.645-1.432 1.432s.645 1.432 1.432 1.432c.787 0 1.432-.645 1.432-1.432s-.645-1.432-1.432-1.432zm-8.593 2.148c-4.329 0-7.877 3.548-7.877 7.877s3.548 7.877 7.877 7.877 7.877-3.548 7.877-7.877-3.548-7.877-7.877-7.877zm0 1.432c3.548 0 6.445 2.896 6.445 6.445s-2.896 6.445-6.445 6.445c-3.548 0-6.445-2.896-6.445-6.445s2.896-6.445 6.445-6.445z" style="fill:var(--color2, #d9d9d9)"/></symbol><symbol id="icon-mail" viewBox="0 0 30 32"><path fill="#d9d9d9" d="M16.888 10.452a.469.469 0 0 0-.466-.471h-.002a.469.469 0 0 0-.469.466l-.001.236a1.918 1.918 0 0 0-1.185-.4c-1.105 0-2.249.956-2.249 2.557 0 1.46.989 2.647 2.204 2.647.528 0 1.006-.223 1.378-.598.074.149.171.287.288.405.261.263.598.407.948.407 1.013 0 1.655-.705 1.918-1.366.408-1.025.481-1.889.238-2.801l-.004-.014c-.368-1.221-1.193-2.22-2.321-2.814s-2.419-.708-3.635-.321c-1.152.367-2.111 1.157-2.699 2.226s-.743 2.302-.436 3.471a4.68 4.68 0 0 0 1.663 2.526 4.765 4.765 0 0 0 2.774.999h.013a.468.468 0 0 0 .012-.938 3.809 3.809 0 0 1-3.557-2.826c-.246-.936-.122-1.923.35-2.781s1.24-1.491 2.162-1.785a3.763 3.763 0 0 1 2.914.257 3.76 3.76 0 0 1 1.858 2.247c.199.751.079 1.494-.204 2.206-.093.233-.38.775-1.047.775a.417.417 0 0 1-.284-.131.643.643 0 0 1-.18-.45l.018-3.732zm-2.169 4.099c-.609 0-1.266-.654-1.266-1.71 0-1.014.667-1.619 1.312-1.619.674 0 1.15.626 1.175 1.532l-.001.171c-.036.905-.569 1.626-1.219 1.626z" style="fill:var(--color2, #d9d9d9)"/><path fill="#d9d9d9" d="M29.146 29.991V13.999c0-.539-.22-1.066-.604-1.445l-.002-.002-.001-.001-.003-.003-1.842-1.808V9.683a.469.469 0 0 0-.938 0v4.985l-8.517 8.502-1.34-.736a2 2 0 0 0-1.936 0l-1.34.736-8.517-8.502V6.577c0-.603.491-1.094 1.094-1.094h19.461c.603 0 1.094.491 1.094 1.094v1.112a.469.469 0 0 0 .938 0V6.577c0-1.12-.911-2.031-2.031-2.031h-4.281L16.295.535a2.005 2.005 0 0 0-2.714-.013l-.014.013-4.086 4.011H5.2c-1.12 0-2.031.911-2.031 2.031v4.164l-1.842 1.808-.002.002-.001.001-.002.002a2.044 2.044 0 0 0-.603 1.444v5.349a.469.469 0 0 0 .938 0v-5.349c0-.131.025-.26.071-.381L11.769 23.64 1.658 29.197V21.39a.469.469 0 0 0-.938 0v8.607a2.012 2.012 0 0 0 2.01 2.002h17.305a.469.469 0 0 0 0-.938H2.73c-.502 0-.923-.347-1.04-.814l12.725-6.993c.324-.178.71-.178 1.033 0l12.725 6.993a1.074 1.074 0 0 1-1.04.813h-5.057a.469.469 0 0 0 0 .938h5.057a2.012 2.012 0 0 0 2.01-2.002v-.007zM14.219 1.212a1.07 1.07 0 0 1 1.428 0l3.397 3.334h-8.223l3.397-3.334zM3.171 13.733l-.848-.846.848-.832v1.678zm23.387 1.462 1.58-1.577a1.1 1.1 0 0 1 .071.382v15.198l-10.112-5.557 8.461-8.446zm.985-2.308-.848.846v-1.678l.848.832z" style="fill:var(--color2, #d9d9d9)"/></symbol><symbol id="icon-phone" viewBox="0 0 32 32"><path fill="#fff" d="M6.521 21.271c3.156 3.773 6.956 6.743 11.292 8.845 1.651.782 3.859 1.711 6.319 1.87a9.7 9.7 0 0 0 .451.013c1.651 0 2.977-.57 4.058-1.744.007-.007.02-.02.027-.033.385-.464.822-.882 1.28-1.326.312-.298.63-.61.935-.928 1.412-1.472 1.412-3.342-.013-4.768l-3.985-3.985c-.676-.703-1.485-1.074-2.334-1.074s-1.664.371-2.361 1.067l-2.374 2.374a12.678 12.678 0 0 0-.656-.345 8.27 8.27 0 0 1-.729-.398c-2.162-1.373-4.124-3.163-6.001-5.464-.948-1.2-1.585-2.208-2.029-3.236a39.874 39.874 0 0 0 1.77-1.731c.199-.206.404-.411.61-.617.716-.716 1.101-1.545 1.101-2.387s-.378-1.671-1.101-2.387l-1.976-1.976c-.232-.232-.451-.458-.676-.69a36.704 36.704 0 0 0-1.346-1.333C8.1.348 7.298-.003 6.449-.003c-.842 0-1.651.351-2.361 1.028l-2.48 2.48A5.094 5.094 0 0 0 .09 6.767c-.126 1.585.166 3.269.922 5.305 1.16 3.15 2.911 6.074 5.51 9.197zM1.707 6.909a3.51 3.51 0 0 1 1.054-2.254l2.467-2.467c.385-.371.809-.564 1.22-.564.404 0 .816.192 1.194.577.444.411.862.842 1.313 1.3.225.232.458.464.69.703l1.976 1.976c.411.411.623.829.623 1.24s-.212.829-.623 1.24c-.206.206-.411.418-.617.623-.617.623-1.194 1.213-1.83 1.777l-.033.033c-.55.55-.464 1.074-.332 1.472l.02.053c.511 1.227 1.22 2.394 2.327 3.786 1.989 2.453 4.085 4.356 6.392 5.822.285.186.59.332.875.477.265.133.511.259.729.398.027.013.046.027.073.04.219.113.431.166.643.166.53 0 .875-.338.988-.451l2.48-2.48c.385-.385.802-.59 1.213-.59.504 0 .915.312 1.174.59l3.998 3.992c.796.796.789 1.658-.02 2.5-.278.298-.57.583-.882.882-.464.451-.948.915-1.386 1.439-.763.822-1.671 1.207-2.845 1.207-.113 0-.232-.007-.345-.013-2.175-.139-4.197-.988-5.716-1.711-4.124-1.996-7.745-4.827-10.748-8.421-2.473-2.977-4.138-5.749-5.238-8.719-.683-1.823-.942-3.289-.835-4.622z" style="fill:var(--color1, #fff)"/></symbol><symbol id="icon-preproduction" viewBox="0 0 32 32"><path d="M16 30.4C8.047 30.4 1.6 23.953 1.6 16S8.047 1.6 16 1.6 30.4 8.047 30.4 16 23.953 30.4 16 30.4zm0 1.6c8.836 0 16-7.164 16-16S24.836 0 16 0C7.163 0 0 7.163 0 16s7.163 16 16 16z"/><path d="M20.158 16 12.8 11.095v9.81L20.158 16zm1.486-.932a1.12 1.12 0 0 1 0 1.864l-8.703 5.802a1.12 1.12 0 0 1-1.741-.932V10.198a1.12 1.12 0 0 1 1.741-.932l8.703 5.802z"/></symbol><symbol id="icon-scenario" viewBox="0 0 40 32"><path d="M33.835 5.214c-1.943-.292-3.823-.357-5.587-.193-2.463.229-4.619.904-6.409 2.008a.586.586 0 0 0 .615.997C26.24 5.691 31.1 5.988 33.66 6.372a.587.587 0 0 0 .175-1.158zM33.835 10.069c-1.943-.292-3.823-.357-5.587-.193-2.463.229-4.619.904-6.409 2.008a.586.586 0 0 0 .615.997c3.786-2.335 8.646-2.038 11.206-1.654a.587.587 0 0 0 .175-1.158zM33.835 14.925c-1.943-.292-3.823-.357-5.587-.193-2.463.229-4.619.904-6.409 2.008a.586.586 0 0 0 .615.997c3.786-2.335 8.646-2.038 11.206-1.654a.587.587 0 0 0 .175-1.158zM33.835 19.78c-1.943-.292-3.823-.357-5.587-.193-2.463.229-4.619.904-6.409 2.008a.586.586 0 0 0 .615.997c3.786-2.335 8.646-2.038 11.206-1.654a.587.587 0 0 0 .175-1.158zM6.339 6.373c2.56-.385 7.42-.682 11.206 1.654a.586.586 0 0 0 .615-.997c-1.79-1.104-3.946-1.779-6.409-2.008-1.764-.164-3.643-.099-5.587.193a.586.586 0 0 0 .174 1.159zM6.339 11.228c2.56-.385 7.42-.682 11.206 1.654a.586.586 0 0 0 .615-.997c-1.79-1.104-3.946-1.779-6.409-2.008-1.764-.164-3.643-.099-5.587.193a.586.586 0 0 0 .174 1.159zM6.339 16.084c2.56-.385 7.42-.682 11.206 1.654a.586.586 0 0 0 .615-.997c-1.79-1.104-3.946-1.779-6.409-2.008-1.764-.164-3.643-.099-5.587.193a.586.586 0 0 0 .174 1.159zM6.339 20.939c2.56-.385 7.42-.682 11.206 1.654a.586.586 0 0 0 .615-.997c-1.79-1.104-3.946-1.779-6.409-2.008-1.764-.164-3.643-.099-5.587.193a.586.586 0 0 0 .174 1.159z"/><path d="M38.976 2.983a27.65 27.65 0 0 0-2.209-.446 1.47 1.47 0 0 0-1.134-1.36C33.24.615 25.194-.806 20 3.892 14.806-.806 6.76.615 4.367 1.177c-.644.152-1.1.705-1.133 1.36-.952.155-1.713.324-2.209.446A1.345 1.345 0 0 0 .001 4.291V28.12c0 .866.805 1.508 1.648 1.313a28.99 28.99 0 0 1 6.707-.718c3.523.055 6.53.836 8.937 2.321.461.284.992.434 1.535.434h2.345a2.92 2.92 0 0 0 1.535-.434c2.407-1.485 5.414-2.266 8.937-2.321 2.921-.044 5.456.431 6.707.718A1.347 1.347 0 0 0 40 28.12V4.291c0-.622-.421-1.159-1.024-1.308zm-.148 25.137a.174.174 0 0 1-.214.171 30.122 30.122 0 0 0-6.988-.748c-3.737.058-6.945.898-9.534 2.495a1.75 1.75 0 0 1-.92.26h-2.345c-.326 0-.644-.09-.92-.26-2.589-1.598-5.797-2.437-9.534-2.495-3.045-.047-5.685.448-6.988.748a.175.175 0 0 1-.214-.171V4.291c0-.081.055-.151.133-.17a26.932 26.932 0 0 1 1.925-.396v3.009a.586.586 0 1 0 1.172 0V2.613c0-.142.096-.264.233-.296 2.281-.536 10.021-1.911 14.779 2.63V27.36c-.013-.009-.027-.018-.039-.028-4.903-3.837-11.846-2.872-14.603-2.279a.305.305 0 0 1-.37-.298V9.462a.586.586 0 1 0-1.172 0v15.293c0 .941.868 1.641 1.788 1.443 7.793-1.676 12.131.88 13.634 2.056a2.182 2.182 0 0 0 2.695 0c1.503-1.177 5.841-3.732 13.634-2.056a1.476 1.476 0 0 0 1.788-1.443v-5.366a.586.586 0 1 0-1.172 0v5.366a.305.305 0 0 1-.37.298c-2.757-.593-9.7-1.558-14.603 2.279a.946.946 0 0 1-.039.028V4.947C25.342.406 33.082 1.78 35.363 2.317a.302.302 0 0 1 .233.296v14.048a.586.586 0 1 0 1.172 0V3.724a26.38 26.38 0 0 1 1.925.396.175.175 0 0 1 .133.17v23.829z"/></symbol><symbol id="icon-you-tube" viewBox="0 0 32 32"><path fill="#d9d9d9" d="M16 30.4C8.047 30.4 1.6 23.953 1.6 16S8.047 1.6 16 1.6 30.4 8.047 30.4 16 23.953 30.4 16 30.4zm0 1.6c8.836 0 16-7.164 16-16S24.836 0 16 0C7.163 0 0 7.163 0 16s7.163 16 16 16z" style="fill:var(--color2, #d9d9d9)"/><path fill="#d9d9d9" d="M20.158 16 12.8 11.095v9.81L20.158 16zm1.486-.932a1.12 1.12 0 0 1 0 1.864l-8.703 5.802a1.12 1.12 0 0 1-1.741-.932V10.198a1.12 1.12 0 0 1 1.741-.932l8.703 5.802z" style="fill:var(--color2, #d9d9d9)"/></symbol></defs></svg>